<?xml version="1.0" encoding="UTF-8"?>
<svg xmlns="http://www.w3.org/2000/svg" version="1.1" viewBox="0 0 800 800">
  <!-- Generator: Adobe Illustrator 30.6.0, SVG Export Plug-In . SVG Version: 2.1.4 Build 109)  -->
  <defs>
    <style>
      .st0, .st1 {
        fill: #58595b;
      }

      .st2 {
        fill: #fff;
        stroke: #8e9194;
        stroke-miterlimit: 10;
        stroke-width: 2px;
      }

      .st3 {
        isolation: isolate;
      }

      .st1 {
        mix-blend-mode: multiply;
        opacity: .6;
      }
    </style>
  </defs>
  <g class="st3">
    <g id="Layer_1">
      <g>
        <rect class="st1" x="50.97" y="67.26" width="717.29" height="717.29" rx="18.42" ry="18.42"/>
        <rect class="st2" x="41.86" y="41.86" width="717.29" height="717.29" rx="18.42" ry="18.42"/>
        <rect class="st0" x="319.59" y="213.28" width="28.69" height="74.46"/>
        <rect class="st0" x="426.84" y="213.28" width="28.69" height="74.46"/>
        <rect class="st0" x="373.56" y="406.62" width="28.69" height="74.46"/>
        <rect class="st0" x="320.35" y="530.29" width="28.69" height="74.46" transform="translate(-244.78 253.99) rotate(-31.05)"/>
        <rect class="st0" x="426.76" y="530.29" width="28.69" height="74.46" transform="translate(526.2353 1281.2434) rotate(-148.9457)"/>
        <rect class="st1" x="322.89" y="216.58" width="25.39" height="71.16"/>
        <rect class="st1" x="430.14" y="216.58" width="25.39" height="71.16"/>
        <rect class="st1" x="376.86" y="409.92" width="25.39" height="71.16"/>
        <rect class="st1" x="322.57" y="534.2" width="27.57" height="69.94" transform="translate(-245.4 255.08) rotate(-31.05)"/>
        <rect class="st1" x="430.67" y="532.5" width="24.16" height="73.34" transform="translate(528.4478 1285.1583) rotate(-148.9457)"/>
      </g>
    </g>
  </g>
</svg>